HIERARCHY
ROOT Hips
{
  OFFSET 0.000000 95.000000 0.000000
  CHANNELS 6 Xposition Yposition Zposition Zrotation Xrotation Yrotation
  JOINT Spine
  {
    OFFSET 0.000000 10.000000 0.000000
    CHANNELS 3 Zrotation Xrotation Yrotation
    JOINT Spine1
    {
      OFFSET 0.000000 12.000000 0.000000
      CHANNELS 3 Zrotation Xrotation Yrotation
      JOINT Spine2
      {
        OFFSET 0.000000 12.000000 0.000000
        CHANNELS 3 Zrotation Xrotation Yrotation
        JOINT Neck
        {
          OFFSET 0.000000 10.000000 0.000000
          CHANNELS 3 Zrotation Xrotation Yrotation
          JOINT Head
          {
            OFFSET 0.000000 8.000000 0.000000
            CHANNELS 3 Zrotation Xrotation Yrotation
            End Site
            {
              OFFSET 0.000000 10.000000 0.000000
            }
          }
        }
        JOINT LeftShoulder
        {
          OFFSET 6.000000 8.000000 0.000000
          CHANNELS 3 Zrotation Xrotation Yrotation
          JOINT LeftArm
          {
            OFFSET 12.000000 0.000000 0.000000
            CHANNELS 3 Zrotation Xrotation Yrotation
            JOINT LeftForeArm
            {
              OFFSET 24.000000 0.000000 0.000000
              CHANNELS 3 Zrotation Xrotation Yrotation
              JOINT LeftHand
              {
                OFFSET 22.000000 0.000000 0.000000
                CHANNELS 3 Zrotation Xrotation Yrotation
                JOINT LeftHandThumb1
                {
                  OFFSET 1.800000 -1.400000 0.500000
                  CHANNELS 3 Zrotation Xrotation Yrotation
                  JOINT LeftHandThumb2
                  {
                    OFFSET 2.400000 0.000000 0.000000
                    CHANNELS 3 Zrotation Xrotation Yrotation
                    JOINT LeftHandThumb3
                    {
                      OFFSET 1.900000 0.000000 0.000000
                      CHANNELS 3 Zrotation Xrotation Yrotation
                      End Site
                      {
                        OFFSET 1.600000 0.000000 0.000000
                      }
                    }
                  }
                }
                JOINT LeftHandIndex1
                {
                  OFFSET 6.600000 1.200000 0.300000
                  CHANNELS 3 Zrotation Xrotation Yrotation
                  JOINT LeftHandIndex2
                  {
                    OFFSET 2.000000 0.000000 0.000000
                    CHANNELS 3 Zrotation Xrotation Yrotation
                    JOINT LeftHandIndex3
                    {
                      OFFSET 1.200000 0.000000 0.000000
                      CHANNELS 3 Zrotation Xrotation Yrotation
                      End Site
                      {
                        OFFSET 1.000000 0.000000 0.000000
                      }
                    }
                  }
                }
                JOINT LeftHandMiddle1
                {
                  OFFSET 7.200000 0.000000 0.300000
                  CHANNELS 3 Zrotation Xrotation Yrotation
                  JOINT LeftHandMiddle2
                  {
                    OFFSET 3.000000 0.000000 0.000000
                    CHANNELS 3 Zrotation Xrotation Yrotation
                    JOINT LeftHandMiddle3
                    {
                      OFFSET 2.000000 0.000000 0.000000
                      CHANNELS 3 Zrotation Xrotation Yrotation
                      End Site
                      {
                        OFFSET 1.600000 0.000000 0.000000
                      }
                    }
                  }
                }
                JOINT LeftHandRing1
                {
                  OFFSET 7.100000 -1.000000 0.400000
                  CHANNELS 3 Zrotation Xrotation Yrotation
                  JOINT LeftHandRing2
                  {
                    OFFSET 2.600000 0.000000 0.000000
                    CHANNELS 3 Zrotation Xrotation Yrotation
                    JOINT LeftHandRing3
                    {
                      OFFSET 1.600000 0.000000 0.000000
                      CHANNELS 3 Zrotation Xrotation Yrotation
                      End Site
                      {
                        OFFSET 1.300000 0.000000 0.000000
                      }
                    }
                  }
                }
                JOINT LeftHandPinky1
                {
                  OFFSET 6.500000 -2.000000 0.500000
                  CHANNELS 3 Zrotation Xrotation Yrotation
                  JOINT LeftHandPinky2
                  {
                    OFFSET 1.900000 0.000000 0.000000
                    CHANNELS 3 Zrotation Xrotation Yrotation
                    JOINT LeftHandPinky3
                    {
                      OFFSET 1.400000 0.000000 0.000000
                      CHANNELS 3 Zrotation Xrotation Yrotation
                      End Site
                      {
                        OFFSET 1.300000 0.000000 0.000000
                      }
                    }
                  }
                }
              }
            }
          }
        }
        JOINT RightShoulder
        {
          OFFSET -6.000000 8.000000 0.000000
          CHANNELS 3 Zrotation Xrotation Yrotation
          JOINT RightArm
          {
            OFFSET -12.000000 0.000000 0.000000
            CHANNELS 3 Zrotation Xrotation Yrotation
            JOINT RightForeArm
            {
              OFFSET -24.000000 0.000000 0.000000
              CHANNELS 3 Zrotation Xrotation Yrotation
              JOINT RightHand
              {
                OFFSET -22.000000 0.000000 0.000000
                CHANNELS 3 Zrotation Xrotation Yrotation
                JOINT RightHandThumb1
                {
                  OFFSET -1.800000 -1.400000 0.500000
                  CHANNELS 3 Zrotation Xrotation Yrotation
                  JOINT RightHandThumb2
                  {
                    OFFSET -2.400000 0.000000 0.000000
                    CHANNELS 3 Zrotation Xrotation Yrotation
                    JOINT RightHandThumb3
                    {
                      OFFSET -1.900000 0.000000 0.000000
                      CHANNELS 3 Zrotation Xrotation Yrotation
                      End Site
                      {
                        OFFSET -1.600000 0.000000 0.000000
                      }
                    }
                  }
                }
                JOINT RightHandIndex1
                {
                  OFFSET -6.600000 1.200000 0.300000
                  CHANNELS 3 Zrotation Xrotation Yrotation
                  JOINT RightHandIndex2
                  {
                    OFFSET -2.000000 0.000000 0.000000
                    CHANNELS 3 Zrotation Xrotation Yrotation
                    JOINT RightHandIndex3
                    {
                      OFFSET -1.200000 0.000000 0.000000
                      CHANNELS 3 Zrotation Xrotation Yrotation
                      End Site
                      {
                        OFFSET -1.000000 0.000000 0.000000
                      }
                    }
                  }
                }
                JOINT RightHandMiddle1
                {
                  OFFSET -7.200000 0.000000 0.300000
                  CHANNELS 3 Zrotation Xrotation Yrotation
                  JOINT RightHandMiddle2
                  {
                    OFFSET -3.000000 0.000000 0.000000
                    CHANNELS 3 Zrotation Xrotation Yrotation
                    JOINT RightHandMiddle3
                    {
                      OFFSET -2.000000 0.000000 0.000000
                      CHANNELS 3 Zrotation Xrotation Yrotation
                      End Site
                      {
                        OFFSET -1.600000 0.000000 0.000000
                      }
                    }
                  }
                }
                JOINT RightHandRing1
                {
                  OFFSET -7.100000 -1.000000 0.400000
                  CHANNELS 3 Zrotation Xrotation Yrotation
                  JOINT RightHandRing2
                  {
                    OFFSET -2.600000 0.000000 0.000000
                    CHANNELS 3 Zrotation Xrotation Yrotation
                    JOINT RightHandRing3
                    {
                      OFFSET -1.600000 0.000000 0.000000
                      CHANNELS 3 Zrotation Xrotation Yrotation
                      End Site
                      {
                        OFFSET -1.300000 0.000000 0.000000
                      }
                    }
                  }
                }
                JOINT RightHandPinky1
                {
                  OFFSET -6.500000 -2.000000 0.500000
                  CHANNELS 3 Zrotation Xrotation Yrotation
                  JOINT RightHandPinky2
                  {
                    OFFSET -1.900000 0.000000 0.000000
                    CHANNELS 3 Zrotation Xrotation Yrotation
                    JOINT RightHandPinky3
                    {
                      OFFSET -1.400000 0.000000 0.000000
                      CHANNELS 3 Zrotation Xrotation Yrotation
                      End Site
                      {
                        OFFSET -1.300000 0.000000 0.000000
                      }
                    }
                  }
                }
              }
            }
          }
        }
      }
    }
  }
  JOINT LeftUpLeg
  {
    OFFSET 10.000000 -5.000000 0.000000
    CHANNELS 3 Zrotation Xrotation Yrotation
    JOINT LeftLeg
    {
      OFFSET 0.000000 -42.000000 0.000000
      CHANNELS 3 Zrotation Xrotation Yrotation
      JOINT LeftFoot
      {
        OFFSET 0.000000 -42.000000 4.000000
        CHANNELS 3 Zrotation Xrotation Yrotation
        End Site
        {
          OFFSET 0.000000 0.000000 12.000000
        }
      }
    }
  }
  JOINT RightUpLeg
  {
    OFFSET -10.000000 -5.000000 0.000000
    CHANNELS 3 Zrotation Xrotation Yrotation
    JOINT RightLeg
    {
      OFFSET 0.000000 -42.000000 0.000000
      CHANNELS 3 Zrotation Xrotation Yrotation
      JOINT RightFoot
      {
        OFFSET 0.000000 -42.000000 4.000000
        CHANNELS 3 Zrotation Xrotation Yrotation
        End Site
        {
          OFFSET 0.000000 0.000000 12.000000
        }
      }
    }
  }
}
MOTION
Frames: 6
Frame Time: 0.033333
0.0000 95.0000 0.0000 0.0000 0.0000 0.0000 0.0000 0.0000 0.0000 0.0000 0.0000 0.0000 0.0000 0.0000 0.0000 0.0000 0.0000 0.0000 0.0000 0.0000 0.0000 0.0000 0.0000 0.0000 -71.6417 17.2182 23.6930 -4.6974 3.6990 -3.1712 131.4079 65.6716 1.6127 70.6142 -13.6865 32.6727 25.6297 0.0000 0.0000 42.0555 0.0000 0.0000 -9.7245 -2.4366 29.2088 7.3528 0.0000 0.0000 4.6352 0.0000 0.0000 1.5740 -0.4124 24.5909 110.0000 0.0000 0.0000 14.9030 0.0000 0.0000 12.3375 0.2734 29.0117 110.0000 0.0000 0.0000 13.9955 0.0000 0.0000 16.4353 3.9818 31.8917 110.0000 0.0000 0.0000 13.2569 0.0000 0.0000 0.0000 0.0000 0.0000 66.5534 -24.1090 36.0486 -149.0774 67.3583 -63.8568 -48.9002 -34.3441 -378.2600 -37.5036 -5.8707 -7.9556 6.0346 0.0000 0.0000 2.7267 0.0000 0.0000 30.0437 -3.3447 53.3586 110.0000 0.0000 0.0000 27.8251 0.0000 0.0000 17.1534 -8.5503 57.5029 110.0000 0.0000 0.0000 31.0784 0.0000 0.0000 7.7182 -12.5057 58.1241 110.0000 0.0000 0.0000 30.0330 0.0000 0.0000 -6.6559 -15.0247 56.9167 110.0000 0.0000 0.0000 30.2529 0.0000 0.0000 0.0000 0.0000 0.0000 0.0000 0.0000 0.0000 0.0000 0.0000 0.0000 0.0000 0.0000 0.0000 0.0000 0.0000 0.0000 0.0000 0.0000 0.0000
0.0000 95.0000 0.0000 0.0000 0.0000 0.0000 0.0000 0.0000 0.0000 0.0000 0.0000 0.0000 0.0000 0.0000 0.0000 0.0000 0.0000 0.0000 0.0000 0.0000 0.0000 0.0000 0.0000 0.0000 -71.4511 17.4443 24.0817 -4.6447 3.6371 -3.0751 131.1472 66.0461 0.9709 70.6142 -13.6865 32.6727 25.6297 0.0000 0.0000 42.0555 0.0000 0.0000 -9.7245 -2.4366 29.2088 7.3528 0.0000 0.0000 4.6352 0.0000 0.0000 1.5740 -0.4124 24.5909 110.0000 0.0000 0.0000 14.9030 0.0000 0.0000 12.3375 0.2734 29.0117 110.0000 0.0000 0.0000 13.9955 0.0000 0.0000 16.4353 3.9818 31.8917 110.0000 0.0000 0.0000 13.2569 0.0000 0.0000 0.0000 0.0000 0.0000 66.8977 -23.8412 35.4446 -150.9229 67.1306 -64.8951 -46.2010 -32.1221 -380.5993 -38.3437 -6.1367 -7.8478 7.4426 0.0000 0.0000 2.6643 0.0000 0.0000 28.1396 -2.6522 55.4332 109.3463 0.0000 0.0000 28.6560 0.0000 0.0000 14.5807 -7.4864 58.9420 110.0000 0.0000 0.0000 31.2279 0.0000 0.0000 5.4749 -11.9032 60.3336 110.0000 0.0000 0.0000 31.1038 0.0000 0.0000 -8.7233 -15.3694 61.7784 107.8270 0.0000 0.0000 33.2596 0.0000 0.0000 0.0000 0.0000 0.0000 0.0000 0.0000 0.0000 0.0000 0.0000 0.0000 0.0000 0.0000 0.0000 0.0000 0.0000 0.0000 0.0000 0.0000 0.0000
0.0000 95.0000 0.0000 0.0000 0.0000 0.0000 0.0000 0.0000 0.0000 0.0000 0.0000 0.0000 0.0000 0.0000 0.0000 0.0000 0.0000 0.0000 0.0000 0.0000 0.0000 0.0000 0.0000 0.0000 -71.4064 17.3957 24.0348 -5.0176 3.6385 -2.9406 131.9343 66.0141 1.6100 70.6142 -13.6865 32.6727 25.6297 0.0000 0.0000 42.0555 0.0000 0.0000 -9.7245 -2.4366 29.2088 7.3528 0.0000 0.0000 4.6352 0.0000 0.0000 1.5740 -0.4124 24.5909 110.0000 0.0000 0.0000 14.9030 0.0000 0.0000 12.3375 0.2734 29.0117 110.0000 0.0000 0.0000 13.9955 0.0000 0.0000 16.4353 3.9818 31.8917 110.0000 0.0000 0.0000 13.2569 0.0000 0.0000 0.0000 0.0000 0.0000 67.0026 -23.5620 34.9784 -151.7138 67.4713 -65.2254 -45.0387 -28.2467 -383.1707 -38.5710 -6.0829 -8.1977 7.4531 0.0000 0.0000 2.9392 0.0000 0.0000 26.2687 -2.0519 59.9970 103.4145 0.0000 0.0000 27.7816 0.0000 0.0000 11.7044 -6.6412 63.7973 107.6173 0.0000 0.0000 33.1877 0.0000 0.0000 1.9875 -10.6466 63.1113 109.3886 0.0000 0.0000 33.3837 0.0000 0.0000 -12.1222 -13.9036 63.0037 105.5009 0.0000 0.0000 34.3161 0.0000 0.0000 0.0000 0.0000 0.0000 0.0000 0.0000 0.0000 0.0000 0.0000 0.0000 0.0000 0.0000 0.0000 0.0000 0.0000 0.0000 0.0000 0.0000 0.0000
0.0000 95.0000 0.0000 0.0000 0.0000 0.0000 0.0000 0.0000 0.0000 0.0000 0.0000 0.0000 0.0000 0.0000 0.0000 0.0000 0.0000 0.0000 0.0000 0.0000 0.0000 0.0000 0.0000 0.0000 -71.7342 17.3476 23.8293 -5.2622 4.0212 -3.3993 133.0448 65.4059 3.1551 70.6142 -13.6865 32.6727 25.6297 0.0000 0.0000 42.0555 0.0000 0.0000 -9.7245 -2.4366 29.2088 7.3528 0.0000 0.0000 4.6352 0.0000 0.0000 1.5740 -0.4124 24.5909 110.0000 0.0000 0.0000 14.9030 0.0000 0.0000 12.3375 0.2734 29.0117 110.0000 0.0000 0.0000 13.9955 0.0000 0.0000 16.4353 3.9818 31.8917 110.0000 0.0000 0.0000 13.2569 0.0000 0.0000 0.0000 0.0000 0.0000 67.4226 -23.1509 34.1319 -151.3685 69.0314 -64.9300 -42.9145 -1.7365 -397.8527 -44.1885 -8.8945 -3.4115 6.5567 0.0000 0.0000 1.0027 0.0000 0.0000 1.3771 21.2824 98.6821 59.4862 0.0000 0.0000 19.9890 0.0000 0.0000 -12.3451 15.1754 106.6276 53.4379 0.0000 0.0000 22.9928 0.0000 0.0000 -20.1251 3.9981 105.7637 54.9173 0.0000 0.0000 28.6319 0.0000 0.0000 -33.8191 -2.6900 101.2053 55.1824 0.0000 0.0000 32.3875 0.0000 0.0000 0.0000 0.0000 0.0000 0.0000 0.0000 0.0000 0.0000 0.0000 0.0000 0.0000 0.0000 0.0000 0.0000 0.0000 0.0000 0.0000 0.0000 0.0000
0.0000 95.0000 0.0000 0.0000 0.0000 0.0000 0.0000 0.0000 0.0000 0.0000 0.0000 0.0000 0.0000 0.0000 0.0000 0.0000 0.0000 0.0000 0.0000 0.0000 0.0000 0.0000 0.0000 0.0000 -71.5032 17.3994 23.9982 -5.5176 3.9855 -3.2497 133.2741 65.5865 3.1181 70.6142 -13.6865 32.6727 25.6297 0.0000 0.0000 42.0555 0.0000 0.0000 -9.7245 -2.4366 29.2088 7.3528 0.0000 0.0000 4.6352 0.0000 0.0000 1.5740 -0.4124 24.5909 110.0000 0.0000 0.0000 14.9030 0.0000 0.0000 12.3375 0.2734 29.0117 110.0000 0.0000 0.0000 13.9955 0.0000 0.0000 16.4353 3.9818 31.8917 110.0000 0.0000 0.0000 13.2569 0.0000 0.0000 0.0000 0.0000 0.0000 66.8547 -22.9711 34.2203 -145.9332 73.5989 -61.5299 -40.4851 -13.7245 -372.0225 -46.2023 -10.5266 1.4761 4.9037 0.0000 0.0000 1.5184 0.0000 0.0000 41.5212 -17.6225 87.7616 43.6643 0.0000 0.0000 19.3375 0.0000 0.0000 28.2342 -25.7084 89.2077 48.3596 0.0000 0.0000 39.7500 0.0000 0.0000 20.8723 -30.9219 84.2374 62.3702 0.0000 0.0000 63.5009 0.0000 0.0000 8.6988 -34.7088 81.7003 73.9608 0.0000 0.0000 70.1370 0.0000 0.0000 0.0000 0.0000 0.0000 0.0000 0.0000 0.0000 0.0000 0.0000 0.0000 0.0000 0.0000 0.0000 0.0000 0.0000 0.0000 0.0000 0.0000 0.0000
0.0000 95.0000 0.0000 0.0000 0.0000 0.0000 0.0000 0.0000 0.0000 0.0000 0.0000 0.0000 0.0000 0.0000 0.0000 0.0000 0.0000 0.0000 0.0000 0.0000 0.0000 0.0000 0.0000 0.0000 -71.6474 16.7608 23.0694 -6.8402 4.8870 -4.2287 135.4659 63.7591 6.7755 70.6142 -13.6865 32.6727 25.6297 0.0000 0.0000 42.0555 0.0000 0.0000 -9.7245 -2.4366 29.2088 7.3528 0.0000 0.0000 4.6352 0.0000 0.0000 1.5740 -0.4124 24.5909 110.0000 0.0000 0.0000 14.9030 0.0000 0.0000 12.3375 0.2734 29.0117 110.0000 0.0000 0.0000 13.9955 0.0000 0.0000 16.4353 3.9818 31.8917 110.0000 0.0000 0.0000 13.2569 0.0000 0.0000 0.0000 0.0000 0.0000 67.9561 -21.5428 31.5266 -92.2127 85.2244 -12.7695 14.2987 -13.8372 -294.7207 -77.8007 -15.9164 -5.7145 19.2224 0.0000 0.0000 15.2081 0.0000 0.0000 55.3765 5.6196 -9.9051 97.6101 0.0000 0.0000 31.6186 0.0000 0.0000 70.0842 3.6295 -0.4017 103.1838 0.0000 0.0000 17.6488 0.0000 0.0000 69.4285 9.4102 -4.8148 105.7456 0.0000 0.0000 12.5061 0.0000 0.0000 66.2973 8.0655 -0.7228 110.0000 0.0000 0.0000 4.1219 0.0000 0.0000 0.0000 0.0000 0.0000 0.0000 0.0000 0.0000 0.0000 0.0000 0.0000 0.0000 0.0000 0.0000 0.0000 0.0000 0.0000 0.0000 0.0000 0.0000
